<svg xmlns="http://www.w3.org/2000/svg" style="width:24px;height:24px" viewBox="0 0 162.5 162.5"><path d="M44.4 162.5c-.6 0-1.3 0-1.9-.1-1.5-.2-2.9-.5-4.5-1-2.8-.9-5.2-2.2-6.9-3.2-3.8-2.2-7.7-4.9-11.8-8.3-1.8-1.5-3.6-3.1-5.3-4.7l-1.4-1.4c-1-.9-1.9-1.9-2.6-3-1.3-2-2.4-4.6-2.5-8-.1-1.1-.2-2.2-.2-3.4 0-2.4.1-5 .5-7.5.7-5.2 2.4-9.8 3.7-13.3l.3-.9c-.4-.9-.7-1.9-1.1-2.9-1.8-5.2-3-11-3.6-16.8-.6-6.1-.4-12.3.5-18.4.2-1.3.4-2.6.7-3.8-2.4-3.5-5.4-8.5-7.3-14.3v-.1c-.4-1.2-1.4-4.2-.8-8 .2-1.4.5-2.8 1-4.3.9-2.8 2.2-5.1 3.2-6.8 2.2-3.8 4.9-7.6 8.2-11.7 1.5-1.8 3-3.6 4.6-5.2l1.4-1.4q1.05-1.2 2.4-2.1c2-1.5 4.8-2.8 8.6-2.9 1.2-.1 2.5-.2 3.8-.2h.1c2.5 0 5.2.2 7.8.6 4 .6 7.6 1.7 10.8 2.9 2.1-.9 4.3-1.7 6.6-2.5 5.4-1.8 11.2-3 17-3.4 6.1-.5 12.3-.2 18.2.8 1.4.2 2.8.5 4.2.8 4.7-3.2 9-5.5 13.5-6.9h.1c1-.4 3.2-1.1 6.1-1.1.6 0 1.3 0 1.9.1 1.5.2 2.9.5 4.5 1 2.8.9 5.2 2.2 6.9 3.2 3.8 2.2 7.7 4.9 11.8 8.3 1.8 1.5 3.6 3.1 5.3 4.7l1.4 1.4c.7.6 1.4 1.3 1.9 2.1 1.8 2.3 3.2 5.6 3.3 10.2.1 1.6.1 3.3 0 5-.2 3.7-.7 7.2-1.6 10.4q-1.05 3.6-2.4 7.2c1.8 4.5 3.1 9.1 4 13.8 1.8 9.9 1.6 20.1-.6 29.9 1.3 1.9 2.5 3.7 3.5 5.5 1.7 3 3.1 6.1 4.1 9.3.4 1.2 1.3 4.2.7 8.2-.2 1.4-.6 2.7-1.1 4.2-1.8 5.1-4.6 9.3-7.1 12.8-2.7 3.8-5.8 7.5-9 10.9l-1.2 1.2c-.7.8-1.5 1.5-2.4 2.2-2 1.5-4.8 2.7-8.6 2.9-1.2.1-2.5.2-3.8.2h-.1c-2.7 0-5.4-.2-8.2-.7-4.5-.7-8.5-2.1-12.1-3.5-1.9.8-3.9 1.5-5.8 2.1-5.6 1.7-11.5 2.8-17.4 3.1-6.1.4-12.3-.1-18.3-1.2-.7-.1-1.5-.3-2.2-.4-5.2 3.7-9.8 6.1-14.6 7.7h-.1c-1-.1-3.2.7-6.1.7m-19.8-28.4 10.6 3.7c.9-2.6 1-5.4.4-8 0 .2 0 .5.1.7 0 .3.1.7.1 1.1-.1-2-.8-4.6-2.6-7q-1.05-1.35-2.4-2.4l.5.4.9.9c-.8-.8-1.7-1.6-2.7-2.3zm99.1-4.7c-.8.8-1.6 1.6-2.3 2.7l11.9 4.6v-11.1c-1.1 0-2.2.1-3.2.4h.6c.3 0 .7-.1 1.1-.1-1.8.1-4.2.7-6.4 2.1-1.2.8-2.2 1.7-3.1 2.9l.4-.5zm-87.9-2.6c.5.4 1 .8 1.5 1.3 2.6 2.2 5 3.9 7.2 5.2 1.4-.7 3-1.7 4.7-3 .5-.3.9-.7 1.4-1.1.3-.2.5-.5.8-.7l.4-.4 6.2-6.3 8.4 2.9c.3.1.6.2.8.3 1.8.6 3.6 1 5.4 1.4 3.7.7 7.6 1 11.4.7 3.6-.2 7.3-.9 10.7-1.9 1.7-.5 3.4-1.1 5-1.9.8-.3 1.6-.7 2.3-1.1 2-1 4.3-1.6 6.6-1.6 3.6 0 6.3 1.3 7.6 2 .4.2.8.4 1.3.5 2.5 1 5.4 2.2 8 2.6.4.1.9.1 1.3.2 1.5-1.7 2.9-3.5 4.2-5.3.8-1.1 1.6-2.2 2.3-3.3-.1-.2-.2-.4-.4-.7-.7-1.2-1.5-2.4-2.5-3.9-.3-.5-.7-.9-1.1-1.4-.2-.2-.3-.4-.5-.6-4.1-4-5.5-9.7-3.6-15.1.1-.3.2-.6.3-.8 2.3-7.2 2.7-14.9 1.4-22.3-.7-3.5-1.7-7-3.2-10.3-.1-.3-.3-.6-.4-.9-3.3-6.1-1.9-11.3-.7-13.8.5-1 .9-2.1 1.3-3.1.8-1.9 1.4-3.9 2-5.7.2-.9.4-1.8.5-2.9-.5-.4-1-.8-1.5-1.3-2.7-2.2-5-3.9-7.2-5.2q-2.1 1.2-4.8 3l-1.5 1.2c-.1.1-.3.2-.4.4-2.7 2.6-6.3 4-10 4-1.8 0-3.5-.3-5.2-1-.4-.1-.8-.3-1.2-.4-1.8-.5-3.6-1-5.5-1.3-3.7-.6-7.6-.8-11.4-.5-3.6.3-7.2 1-10.6 2.1-1.7.5-3.3 1.2-4.9 1.9-.8.3-1.5.7-2.3 1.1l-.4.2c-2.1 1.2-4.6 1.8-7 1.8-2.2 0-4.4-.5-6.5-1.5-.5-.2-.9-.4-1.4-.6-2.4-1-5.3-2.1-7.8-2.4-.4-.1-.8-.1-1.1-.2-.4.5-.8 1-1.2 1.4-2.2 2.7-3.9 5-5.2 7.3.7 1.4 1.7 2.9 2.9 4.7.3.5.7 1 1.1 1.4.2.3.5.5.7.8l5.8 6.1-2.5 8c-.2.5-.3 1-.5 1.5-.5 1.8-.9 3.7-1.2 5.6-.6 3.8-.7 7.6-.3 11.5.3 3.6 1.1 7.2 2.3 10.6.6 1.7 1.3 3.3 2 4.9l.3.6c2.1 4.3 2.1 9.1-.1 13.4-.2.4-.4.8-.5 1.2-.4 1-.9 2-1.3 3-.8 2.2-1.8 4.8-2.1 7.1 0 .1-.1.4-.1.6m94.1-88c.8.8 1.7 1.6 2.8 2.4l4.9-12.9-10.6-3.7c-.9 2.6-1 5.4-.4 8v-1.7c0 1.5.5 4 2.1 6.4.8 1.1 1.7 2.1 2.8 3l-.5-.4zM29.3 26.3v11.1c1.1 0 2.2-.1 3.2-.4h-.6c-.3 0-.7.1-1.1.1 1.8-.1 4.2-.7 6.4-2.1 1.2-.8 2.2-1.7 3.1-2.9l-.4.5-.9 1c.8-.8 1.6-1.7 2.3-2.7z"/><circle fill="orange" cx="81.4" cy="80.8" r="60.5"/><path style="fill:#fff" d="M59.3 59.5c-3.5-1.6-6.1-3.2-8.7-5.1-4-2.8-7.7-5.9-10.8-9.2-7.6-7.7-11.6-15.6-10.5-22.1L27 25.6c-5.5 5.8-12.8 16-12.9 20.4l.1.5c1 3.4 2.6 6.8 4.9 10.1v.1c3 4.8 8.9 12.7 29.9 21.9l-3.7 7L73.6 78 63.5 51.5zm44 44c3.5 1.6 6.1 3.2 8.7 5.1 4 2.8 7.7 5.9 10.8 9.2 7.6 7.7 11.6 15.6 10.5 22.1l2.3-2.4c5.5-5.8 12.8-16 12.9-20.4l-.1-.5c-1-3.4-2.6-6.8-4.9-10.1v-.1c-3-4.8-8.9-12.7-29.9-21.9l3.7-7L89 85.1l10.2 26.2zm.7-44.2c1.6-3.5 3.2-6.1 5.1-8.7 2.8-4 5.9-7.7 9.2-10.8 7.7-7.6 15.6-11.6 22.1-10.5L138 27c-5.8-5.5-16-12.8-20.4-12.9l-.5.1c-3.4 1-6.8 2.6-10.1 4.9h-.1C102.1 22.1 94.2 28 85 49l-7-3.7 7.6 28.3 26.4-10zm-45.8 43.9c-1.6 3.5-3.2 6.1-5.1 8.7-2.8 4-5.9 7.7-9.2 10.8-7.7 7.6-15.6 11.6-22.1 10.5l2.4 2.3c5.8 5.5 16 12.8 20.4 12.9l.5-.1c3.4-1 6.8-2.6 10.1-4.9h.1c4.8-3 12.7-8.9 21.9-29.9l7 3.7-7.6-28.3-26.3 10z"/></svg>